<svg xmlns="http://www.w3.org/2000/svg" width="120" height="80" fill="none" viewBox="0 0 120 80"><g filter="url(#filter0_d_1314_36266)"><rect width="116" height="76" x="2" y="1" fill="#FAFAFA" rx="6"/><rect width="115" height="75" x="2.5" y="1.5" stroke="#EDEDED" rx="5.5"/><rect width="69.5" height="21.5" x="25.25" y="28.25" fill="#fff" rx="4.75"/><rect width="69.5" height="21.5" x="25.25" y="28.25" stroke="#E6E6E7" stroke-width="1.5" rx="4.75"/><rect width="38" height="4" x="48" y="37" fill="#E6E6E7" opacity=".48" rx="2"/><rect width="4" height="2" x="32" y="34" fill="#D7D8D9" rx="1"/><rect width="8" height="2" x="33" y="38" fill="#D7D8D9" rx="1"/><rect width="4" height="2" x="38" y="34" fill="#D7D8D9" rx="1"/><rect width="2" height="10" x="33" y="34" fill="#D7D8D9" rx="1"/><rect width="2" height="10" x="39" y="34" fill="#D7D8D9" rx="1"/><rect width="4" height="2" x="32" y="42" fill="#D7D8D9" rx="1"/><rect width="4" height="2" x="38" y="42" fill="#D7D8D9" rx="1"/></g><defs><filter id="filter0_d_1314_36266" width="120" height="80" x="0" y="0" color-interpolation-filters="sRGB" filterUnits="userSpaceOnUse"><feFlood flood-opacity="0" result="BackgroundImageFix"/><feColorMatrix in="SourceAlpha" result="hardAlpha" type="matrix" values="0 0 0 0 0 0 0 0 0 0 0 0 0 0 0 0 0 0 127 0"/><feOffset dy="1"/><feGaussianBlur stdDeviation="1"/><feColorMatrix type="matrix" values="0 0 0 0 0.027451 0 0 0 0 0.0313726 0 0 0 0 0.0627451 0 0 0 0.1 0"/><feBlend in2="BackgroundImageFix" mode="normal" result="effect1_dropShadow_1314_36266"/><feBlend in="SourceGraphic" in2="effect1_dropShadow_1314_36266" mode="normal" result="shape"/></filter></defs></svg>