<svg xmlns="http://www.w3.org/2000/svg" fill="none" viewBox="0 0 134 80"><path fill="#fff" d="M0 4C0 1.79086 1.79086 0 4 0H130C132.209 0 134 1.79086 134 4V80H0V4Z"/><rect width="121" height="73" x="6.5" y="16.5" fill="#fff" stroke="#EDEDED" opacity=".8" rx="3.5"/><rect width="1" height="120" x="54" y="16" fill="#EDEDED" opacity=".8"/><rect width="1" height="120" x="112" y="16" fill="#EDEDED" opacity=".8"/><rect width="24" height="4" x="10" y="20" fill="#EDEDED" rx="2"/><rect width="24" height="4" x="65" y="20" fill="#F5F5F5" rx="2"/><rect width="4" height="4" x="118" y="20" fill="#EDEDED" rx="2"/><rect width="4" height="4" x="59" y="20" fill="#EDEDED" rx="2"/><rect width="121" height="1" x="7" y="28" fill="#EDEDED" opacity=".8"/><rect width="32" height="4" x="10" y="33" fill="#E26AB0" rx="2"/><rect width="32" height="4" x="65" y="33" fill="#E26AB0" opacity=".24" rx="2"/><rect width="4" height="4" x="118" y="33" fill="#E26AB0" rx="2"/><rect width="2" height="2" x="119" y="34" fill="#fff" rx="1"/><rect width="4" height="4" x="59" y="33" fill="#E26AB0" opacity=".4" rx="2"/><rect width="121" height="1" x="7" y="41" fill="#EDEDED" opacity=".8"/><rect width="28" height="4" x="10" y="46" fill="#EDEDED" rx="2"/><rect width="24" height="4" x="65" y="46" fill="#F5F5F5" rx="2"/><rect width="4" height="4" x="118" y="46" fill="#EDEDED" rx="2"/><rect width="4" height="4" x="59" y="46" fill="#EDEDED" rx="2"/><rect width="121" height="1" x="7" y="54" fill="#EDEDED" opacity=".8"/><rect width="24" height="4" x="10" y="59" fill="#E26AB0" rx="2"/><rect width="28" height="4" x="65" y="59" fill="#E26AB0" opacity=".24" rx="2"/><rect width="4" height="4" x="118" y="59" fill="#E26AB0" rx="2"/><rect width="2" height="2" x="119" y="60" fill="#fff" rx="1"/><rect width="4" height="4" x="59" y="59" fill="#E26AB0" opacity=".4" rx="2"/><rect width="121" height="1" x="7" y="67" fill="#EDEDED" opacity=".8"/><rect width="32" height="4" x="10" y="72" fill="#EDEDED" rx="2"/><rect width="24" height="4" x="65" y="72" fill="#F5F5F5" rx="2"/><rect width="4" height="4" x="118" y="72" fill="#EDEDED" rx="2"/><rect width="4" height="4" x="59" y="72" fill="#EDEDED" rx="2"/><path fill="#E26AB0" d="M0 4C0 1.79086 1.79086 0 4 0H130C132.209 0 134 1.79086 134 4V10H0V4Z" opacity=".24"/><rect width="40" height="4" x="47" y="3" fill="#fff" opacity=".64" rx="2"/></svg>